<svg width="280" height="235" viewBox="0 0 280 235" fill="none" xmlns="http://www.w3.org/2000/svg">
<path d="M30.7794 181.08H18.7194L32.0394 147.6L4.31937 74.88H16.5594L37.7994 132.12L59.0394 74.88H70.1994L30.7794 181.08ZM114.429 145.62C103.989 145.62 95.8288 142.38 89.9487 135.9C84.1887 129.42 81.3087 120.72 81.3087 109.8C81.3087 98.76 84.2487 90.06 90.1288 83.7C96.1288 77.22 104.409 73.98 114.969 73.98C125.529 73.98 133.689 77.16 139.449 83.52C145.209 89.88 148.089 98.58 148.089 109.62C148.089 120.42 145.089 129.12 139.089 135.72C133.089 142.32 124.869 145.62 114.429 145.62ZM114.969 83.16C108.129 83.16 102.789 85.68 98.9488 90.72C95.2287 95.76 93.3687 102.12 93.3687 109.8C93.3687 117.48 95.2287 123.78 98.9488 128.7C102.789 133.62 108.129 136.08 114.969 136.08C121.689 136.08 126.909 133.62 130.629 128.7C134.349 123.66 136.209 117.36 136.209 109.8C136.209 102.12 134.289 95.76 130.449 90.72C126.729 85.68 121.569 83.16 114.969 83.16ZM194.866 73.98C197.506 73.98 199.606 74.16 201.166 74.52C202.846 74.76 204.466 75.24 206.026 75.96L201.886 86.4C198.766 84.96 195.346 84.24 191.626 84.24C186.586 84.24 181.606 85.92 176.686 89.28V144H164.986V74.88H173.446L175.966 80.82C181.966 76.26 188.266 73.98 194.866 73.98ZM230.141 144H218.441V48.24H230.141V144ZM245.261 105.84L276.941 144H262.541L231.401 105.84L261.641 74.88H275.321L245.261 105.84Z" fill="#AE9331"/>
</svg>
